<svg width="94" height="19" viewBox="0 0 94 19" fill="none" xmlns="http://www.w3.org/2000/svg">
<path d="M11.9727 15.2578V18H2.89062V15.2578H11.9727ZM4.03906 0.9375V18H0.523438V0.9375H4.03906ZM10.7891 7.88672V10.5586H2.89062V7.88672H10.7891ZM11.9609 0.9375V3.69141H2.89062V0.9375H11.9609ZM21.8867 0.9375V18H18.3828V0.9375H21.8867ZM27.1367 0.9375V3.69141H13.2148V0.9375H27.1367ZM32.8789 0.9375V18H29.375V0.9375H32.8789ZM46.0625 12.3398H49.5664C49.4961 13.4883 49.1797 14.5078 48.6172 15.3984C48.0625 16.2891 47.2852 16.9844 46.2852 17.4844C45.293 17.9844 44.0977 18.2344 42.6992 18.2344C41.6055 18.2344 40.625 18.0469 39.7578 17.6719C38.8906 17.2891 38.1484 16.7422 37.5312 16.0312C36.9219 15.3203 36.457 14.4609 36.1367 13.4531C35.8164 12.4453 35.6562 11.3164 35.6562 10.0664V8.88281C35.6562 7.63281 35.8203 6.50391 36.1484 5.49609C36.4844 4.48047 36.9609 3.61719 37.5781 2.90625C38.2031 2.19531 38.9492 1.64844 39.8164 1.26562C40.6836 0.882812 41.6523 0.691406 42.7227 0.691406C44.1445 0.691406 45.3438 0.949219 46.3203 1.46484C47.3047 1.98047 48.0664 2.69141 48.6055 3.59766C49.1523 4.50391 49.4805 5.53516 49.5898 6.69141H46.0742C46.0352 6.00391 45.8984 5.42188 45.6641 4.94531C45.4297 4.46094 45.0742 4.09766 44.5977 3.85547C44.1289 3.60547 43.5039 3.48047 42.7227 3.48047C42.1367 3.48047 41.625 3.58984 41.1875 3.80859C40.75 4.02734 40.3828 4.35938 40.0859 4.80469C39.7891 5.25 39.5664 5.8125 39.418 6.49219C39.2773 7.16406 39.207 7.95312 39.207 8.85938V10.0664C39.207 10.9492 39.2734 11.7266 39.4062 12.3984C39.5391 13.0625 39.7422 13.625 40.0156 14.0859C40.2969 14.5391 40.6562 14.8828 41.0938 15.1172C41.5391 15.3438 42.0742 15.457 42.6992 15.457C43.4336 15.457 44.0391 15.3398 44.5156 15.1055C44.9922 14.8711 45.3555 14.5234 45.6055 14.0625C45.8633 13.6016 46.0156 13.0273 46.0625 12.3398ZM55.3906 0.9375V18H51.875V0.9375H55.3906ZM65.6094 0.9375L58.8477 9.36328L54.9453 13.5586L54.3125 10.2305L56.9492 6.62109L61.2969 0.9375H65.6094ZM61.6133 18L56.5859 10.1133L59.1875 7.93359L65.7734 18H61.6133ZM78.582 15.2578V18H69.5V15.2578H78.582ZM70.6484 0.9375V18H67.1328V0.9375H70.6484ZM77.3984 7.88672V10.5586H69.5V7.88672H77.3984ZM78.5703 0.9375V3.69141H69.5V0.9375H78.5703ZM88.4961 0.9375V18H84.9922V0.9375H88.4961ZM93.7461 0.9375V3.69141H79.8242V0.9375H93.7461Z" fill="black"/>
</svg>
